<?xml version="1.0" encoding="utf-8"?>
<!-- Generator: Adobe Illustrator 18.1.1, SVG Export Plug-In . SVG Version: 6.00 Build 0)  -->
<!DOCTYPE svg PUBLIC "-//W3C//DTD SVG 1.1//EN" "http://www.w3.org/Graphics/SVG/1.1/DTD/svg11.dtd">
<svg version="1.1"
	 id="svg2" xmlns:rdf="http://www.w3.org/1999/02/22-rdf-syntax-ns#" xmlns:svg="http://www.w3.org/2000/svg" xmlns:inkscape="http://www.inkscape.org/namespaces/inkscape" xmlns:sodipodi="http://sodipodi.sourceforge.net/DTD/sodipodi-0.dtd" xmlns:dc="http://purl.org/dc/elements/1.1/" xmlns:cc="http://creativecommons.org/ns#" sodipodi:docname="De_Lijn.svg" inkscape:version="0.91 r13725"
	 xmlns="http://www.w3.org/2000/svg" xmlns:xlink="http://www.w3.org/1999/xlink" x="0px" y="0px" viewBox="-1 9.7 421.7 406.5"
	 enable-background="new -1 9.7 421.7 406.5" xml:space="preserve">
<sodipodi:namedview  inkscape:cy="345.45857" pagecolor="#ffffff" bordercolor="#666666" borderopacity="1" guidetolerance="10" gridtolerance="10" objecttolerance="10" inkscape:zoom="1.8567357" showgrid="false" id="namedview37" inkscape:cx="382.60773" inkscape:current-layer="layer1" inkscape:window-maximized="1" inkscape:window-y="1" inkscape:pageopacity="0" inkscape:window-x="0" inkscape:window-height="956" inkscape:pageshadow="2" inkscape:window-width="1920">
	</sodipodi:namedview>
<g id="layer1" transform="translate(-41.863677,-54.960636)">
	<polygon id="rect4929" fill="#FFDD00" stroke="#FFDD00" stroke-width="1.0197" points="146.5,281.5 427.2,281.5 393.6,470.8 
		112.9,470.8 	"/>
	<polygon id="rect4933" fill="#FFDD00" stroke="#FFDD00" stroke-width="1.0197" points="146.5,281.5 427.2,281.5 393.6,470.8 
		112.9,470.8 	"/>
	<polygon id="rect4937" fill="#FFDD00" stroke="#FFDD00" stroke-width="1.0752" points="187.3,65 462.1,65 445.3,160.3 170.5,160.3 
			"/>
	<polygon id="rect4939" fill="#FFFFFF" points="53.2,201.2 92.6,201.2 80.8,268.3 41.4,268.3 	"/>
	<polygon id="rect4945" fill="#FFFFFF" points="81.7,251.4 104.8,251.4 101.4,268.3 78.3,268.3 	"/>
	<polygon id="rect4949" fill="#FFFFFF" points="113.6,200.9 151.6,200.9 143.3,248.2 105.2,248.2 	"/>
	<polygon id="rect4951" fill="#FFFFFF" points="162.5,200.9 200.5,200.9 192.2,248.2 154.1,248.2 	"/>
	<path id="path4953" fill="#FFFFFF" d="M192.1,248.6c-4.2,10.7-9.5,20.5-25,20l-26.8-0.3l3.2-16.8l6.8,0.3c3.9-0.3,3.4-2.2,3.9-3.7
		v-0.3L192.1,248.6z"/>
	<polygon id="rect4955" fill="#FFFFFF" points="212.5,201.1 247.1,201.1 235.2,268.3 200.6,268.3 	"/>
	<polygon id="rect4957" fill="#FFFFFF" points="265.7,200.7 300.3,200.7 288.4,267.9 253.8,267.9 	"/>
	<polygon id="rect4961" fill="#FFFFFF" points="118.4,172.5 126.3,172.5 123.5,189.3 115.5,189.3 	"/>
	<polygon id="rect4971" fill="#FFFFFF" points="142.9,172.5 150.9,172.5 148,189.3 140.1,189.3 	"/>
	<polygon id="rect4973" fill="#FFFFFF" points="150.4,179.2 152.7,179.2 152.2,181.7 149.9,181.7 	"/>
	<polygon id="rect4975" fill="#FFFFFF" points="151.6,172.5 156.2,172.5 155.6,175.9 151,175.9 	"/>
	<polygon id="rect4977" fill="#FFFFFF" points="149.2,185.8 153.7,185.8 153.1,189.3 148.6,189.3 	"/>
	<path id="path4979" fill="#FFFFFF" d="M126.7,172.5l10,0.1c5.1,5.9,2.7,15.4-3.7,16.6l-9.4,0l1.1-3.9h3.7c1.5-0.2,2.3-1.8,3.1-3.2
		c0.2-0.8,0.1-1.9,0-2.9c-1-1.8-2.3-2.3-3.6-2.5l-1.6-0.1l-1.5,8.8L126.7,172.5z"/>
	<polygon id="rect4981" fill="#010198" stroke="#010198" stroke-width="1.0752" points="169.2,172.6 253.1,172.6 250.2,189.3 
		166.2,189.3 	"/>
	<polygon id="rect4983" fill="#010198" stroke="#010198" stroke-width="1.0752" points="255.5,172.6 305.7,172.6 302.8,189.3 
		252.6,189.3 	"/>
	<polygon id="rect4985" fill="#010198" stroke="#010198" stroke-width="1.0752" points="308.7,172.6 339.2,172.6 336.3,189.3 
		305.7,189.3 	"/>
	<polygon id="rect4989" fill="#010198" stroke="#010198" stroke-width="1.0651" points="342.6,172.6 360.7,172.6 357.6,189.3 
		339.6,189.3 	"/>
	<polygon id="rect4991" fill="#010198" stroke="#010198" stroke-width="1.0652" points="363.9,172.6 375.5,172.6 372.5,189.3 
		360.9,189.3 	"/>
	<polygon id="rect4993" fill="#010198" stroke="#010198" stroke-width="1.0752" points="379.8,172.6 386.6,172.6 383.6,189.3 
		376.9,189.3 	"/>
	<polygon id="rect4995" fill="#010198" stroke="#010198" stroke-width="1.0655" points="391,172.6 395.9,172.6 392.9,189.3 
		388,189.3 	"/>
	<polygon id="rect4997" fill="#010198" stroke="#010198" stroke-width="1.0594" points="400.3,172.5 404.2,172.5 401.1,189.3 
		397.3,189.3 	"/>
	<polygon id="rect4999" fill="#010198" stroke="#010198" stroke-width="1.0657" points="408.9,172.6 411.2,172.6 408.2,189.3 
		405.9,189.3 	"/>
	<polygon id="rect5001" fill="#010198" stroke="#010198" stroke-width="1.0752" points="417.2,172.6 419.5,172.6 416.5,189.3 
		414.3,189.3 	"/>
	<polygon id="rect5003" fill="#010198" stroke="#010198" stroke-width="1.0526" points="426.3,172.3 427.4,172.3 424.2,189.3 
		423.2,189.3 	"/>
	<polygon id="rect5005" fill="#010198" stroke="#010198" stroke-width="1.06" points="434,172.5 435,172.5 431.9,189.3 430.9,189.3 
			"/>
	<polygon id="rect5007" fill="#010198" stroke="#010198" stroke-width="1.0632" points="443.7,172.3 444.3,172.3 441.2,189.3 
		440.6,189.3 	"/>
	<path id="path5009" inkscape:connector-curvature="0" fill="#FFFFFF" d="M253.3,267l-11.9-29.6l6.3-35.5l12.3,31L253.3,267z"/>
	<rect id="rect4165" x="235.9" y="201.2" fill="#FFFFFF" width="11.2" height="35.9"/>
	<rect id="rect4169" x="254.4" y="232" fill="#FFFFFF" width="11.2" height="35.6"/>
	<rect id="rect4171" x="155" y="243.9" fill="#FFFFFF" width="36.3" height="6"/>
	<polygon id="rect4175" fill="#FFFFFF" points="149.4,172.5 154,172.5 153.4,175.9 148.8,175.9 	"/>
	<polygon id="rect4179" fill="#FFFFFF" points="147.6,179 151.4,179 150.9,181.8 147.1,181.8 	"/>
	<polygon id="rect4181" fill="#FFFFFF" points="147.6,185.9 151.3,185.9 150.8,189.2 147.1,189.2 	"/>
	<polygon id="rect4183" fill="#FFFFFF" points="123.4,185.4 127.1,185.4 126.6,189.2 122.9,189.2 	"/>
	<polygon id="rect4185" fill="#FFFFFF" points="125.9,172.6 129.6,172.6 129.1,176.4 125.4,176.4 	"/>
</g>
</svg>
